:SAMPLES-PER-SECOND 30
:FRAME-RANGE 1-1086
:FULLY-SPECIFIED
:DEGREES
815
root  48.5617 37.9992 -57.7457 -171.875 -4.03565 179.656
RightUpLeg  -32.8139 -9.68761 2.60263
RightLeg  29.4317 -5.76815 -3.75895
RightFoot  -5.82759 -0.16752 2.65494
RightToes  -5.8209e-011 0 -3.6325e-017
Spine  15.222 0.877002 6.28734
Spine1  1.60879 -0.644508 7.77062
HEad  -2.16078 2.04821 -1.21125
LeftShoulder1  1.416 -5.66255 -7.92141
LeftArm  -52.8242 -59.3468 5.91641
LeftForeArm  13.513 3.89344 -13.0413
LeftHand  0.450039 -0.505389 -8.85297
RightShoulder  16.2976 36.3998 34.2115
RightArm  -18.9451 35.9694 16.2244
RightForeArm  -37.8205 41.1169 11.6982
RightHand  -0.0875698 -5.65642 17.0924
LeftUpLeg  -39.9534 19.8413 1.26423
LeftLeg  46.5891 -1.15626 -0.897754
LeftFoot  -5.30836 0.291614 -4.92834
LeftToes  5.72949e-011 5.22586e-011 2.45399e-011
816
root  48.4804 38.2223 -58.0241 -170.749 -4.15202 179.598
RightUpLeg  -32.5778 -9.85209 2.55705
RightLeg  27.5739 -5.79424 -3.51461
RightFoot  -5.32837 -0.18506 2.83223
RightToes  -5.8209e-011 0 -3.6325e-017
Spine  15.2497 0.887575 5.00045
Spine1  1.76409 -0.786972 8.04724
HEad  -2.81013 2.34076 -0.874006
LeftShoulder1  1.44711 -5.8766 -7.89831
LeftArm  -53.1367 -59.0518 6.44164
LeftForeArm  11.6114 4.81174 -12.9146
LeftHand  0.485707 -0.144309 -10.2287
RightShoulder  16.6603 36.7252 34.7575
RightArm  -19.9971 35.9128 16.2544
RightForeArm  -35.9871 42.7382 12.2497
RightHand  -0.0996282 -5.76166 16.0646
LeftUpLeg  -39.0447 18.8309 1.91885
LeftLeg  37.5118 -1.40673 -0.794183
LeftFoot  -4.92938 0.333291 -5.42056
LeftToes  5.72949e-011 5.22586e-011 2.45399e-011
817
root  48.3484 38.3997 -58.2815 -169.624 -4.09039 179.74
RightUpLeg  -32.5108 -10.0129 2.69292
RightLeg  25.8721 -5.63717 -3.20254
RightFoot  -4.84017 -0.20471 3.02306
RightToes  -5.8209e-011 0 -3.6325e-017
Spine  15.2855 0.82106 3.8892
Spine1  1.92305 -0.920574 8.14274
HEad  -3.52798 2.58128 -0.27494
LeftShoulder1  1.47884 -6.109 -7.85054
LeftArm  -53.4935 -58.7654 6.70617
LeftForeArm  9.45921 5.88525 -12.6656
LeftHand  0.509777 0.332068 -11.818
RightShoulder  16.8747 36.7599 35.2431
RightArm  -20.0817 35.9751 16.1747
RightForeArm  -32.4317 44.3423 12.7566
RightHand  -0.103408 -5.83483 14.648
LeftUpLeg  -37.8334 18.3878 2.40415
LeftLeg  28.3312 -1.6587 -0.631193
LeftFoot  -3.9528 0.467904 -6.87521
LeftToes  5.72949e-011 5.22586e-011 2.45399e-011
818
root  48.1425 38.4853 -58.5443 -168.67 -3.84059 -179.706
RightUpLeg  -32.6076 -9.91814 3.09443
RightLeg  24.8139 -5.42266 -2.95969
RightFoot  -4.62343 -0.221922 3.24332
RightToes  -5.8209e-011 0 -3.6325e-017
Spine  15.235 0.770346 3.06572
Spine1  2.16692 -1.11359 8.54932
HEad  -4.18197 2.61353 0.221093
LeftShoulder1  1.52837 -6.35418 -7.98491
LeftArm  -53.8026 -58.4098 6.38457
LeftForeArm  6.85468 7.01235 -12.2132
LeftHand  0.513026 0.885984 -13.4554
RightShoulder  16.8965 36.8148 35.2373
RightArm  -19.9643 36.0154 16.3039
RightForeArm  -28.9332 45.0912 12.9189
RightHand  -0.0514253 -5.47826 12.3991
LeftUpLeg  -36.7574 18.5969 2.74884
LeftLeg  20.8605 -1.54277 -0.322902
LeftFoot  -1.94274 0.683038 -8.1591
LeftToes  5.72949e-011 5.22586e-011 2.45399e-011
819
root  47.8722 38.5537 -58.7976 -167.865 -3.27213 -179.204
RightUpLeg  -32.6659 -9.36153 3.19081
RightLeg  23.9748 -5.3538 -2.82406
RightFoot  -4.40026 -0.247031 3.59678
RightToes  -5.8209e-011 0 -3.6325e-017
Spine  15.3981 0.588139 2.17768
Spine1  2.25668 -1.30663 8.57527
HEad  -4.4954 2.95383 0.768834
LeftShoulder1  1.57098 -6.44604 -8.30426
LeftArm  -53.269 -57.833 5.54633
LeftForeArm  3.41298 7.71768 -12.0481
LeftHand  0.513912 1.42481 -15.4263
RightShoulder  17.1114 36.7664 35.8106
RightArm  -21.1666 35.7005 15.87
RightForeArm  -27.5797 46.4049 13.4302
RightHand  -0.0744462 -5.71015 11.4587
LeftUpLeg  -36.1759 19.4547 2.35333
LeftLeg  16.1784 -1.57721 -0.380739
LeftFoot  3.78966 1.00614 -7.74155
LeftToes  5.72949e-011 5.22586e-011 2.45399e-011
820
root  47.51 38.5762 -59.0426 -167.145 -2.37644 -178.757
RightUpLeg  -32.8773 -8.21212 2.88754
RightLeg  23.6092 -5.54284 -2.86957
RightFoot  -4.28418 -0.288618 4.2046
RightToes  -5.8209e-011 0 -3.6325e-017
Spine  15.6561 0.449654 1.241
Spine1  2.30443 -1.49095 8.67437
HEad  -4.85034 3.55732 1.11283
LeftShoulder1  1.64932 -6.48038 -9.12072
LeftArm  -51.744 -57.1855 4.44699
LeftForeArm  1.26949 7.86748 -12.4051
LeftHand  0.556768 1.6081 -17.5258
RightShoulder  16.945 36.4907 35.704
RightArm  -21.2329 35.8333 15.6855
RightForeArm  -26.7461 46.5404 13.4509
RightHand  -0.074434 -5.70354 11.6432
LeftUpLeg  -36.1158 19.4108 2.45453
LeftLeg  15.4425 -1.64513 -0.771906
LeftFoot  6.63234 0.831805 -5.51313
LeftToes  5.72949e-011 5.22586e-011 2.45399e-011
821
root  47.0871 38.586 -59.2699 -166.435 -1.55861 -178.27
RightUpLeg  -33.111 -6.94509 2.45806
RightLeg  23.2649 -5.94792 -3.01752
RightFoot  -4.14143 -0.333495 4.84854
RightToes  -5.8209e-011 0 -3.6325e-017
Spine  15.9051 0.329052 0.637527
Spine1  2.42019 -1.74797 8.79131
HEad  -5.6087 4.03166 1.57175
LeftShoulder1  1.69181 -6.55165 -9.46174
LeftArm  -49.7267 -56.2527 2.46094
LeftForeArm  -1.06271 6.80884 -12.8234
LeftHand  0.638153 1.51374 -19.4914
RightShoulder  16.6424 36.1765 35.3018
RightArm  -20.7211 35.4259 15.6005
RightForeArm  -27.3823 47.1635 13.7668
RightHand  -0.107766 -5.96613 12.4597
LeftUpLeg  -37.2029 20.2628 1.78991
LeftLeg  16.7299 -1.86327 -0.460572
LeftFoot  6.0998 0.780746 -5.3304
LeftToes  5.72949e-011 5.22586e-011 2.45399e-011
